<?xml version="1.0" encoding="UTF-8" standalone="no"?>
<!DOCTYPE svg PUBLIC "-//W3C//DTD SVG 1.1//EN"
 "http://www.w3.org/Graphics/SVG/1.1/DTD/svg11.dtd">
<!-- Generated by graphviz version 2.40.1 (20161225.0304)
 -->
<!-- Title: dependencies Pages: 1 -->
<svg width="867pt" height="284pt"
 viewBox="0.00 0.00 867.00 284.00" xmlns="http://www.w3.org/2000/svg" xmlns:xlink="http://www.w3.org/1999/xlink">
<g id="graph0" class="graph" transform="scale(1 1) rotate(0) translate(4 280)">
<title>dependencies</title>
<polygon fill="#ffffff" stroke="transparent" points="-4,4 -4,-280 863,-280 863,4 -4,4"/>
<text text-anchor="start" x="408.5091" y="-42.4" font-family="sans-serif" font-weight="bold" font-size="14.00" fill="#000000">Legend</text>
<polygon fill="#ffffb3" stroke="transparent" points="195.5,-10 195.5,-30 215.5,-30 215.5,-10 195.5,-10"/>
<text text-anchor="start" x="219.129" y="-15.4" font-family="sans-serif" font-size="14.00" fill="#000000"> &#160;Declarations</text>
<polygon fill="#8dd3c7" stroke="transparent" points="308.5,-10 308.5,-30 328.5,-30 328.5,-10 308.5,-10"/>
<text text-anchor="start" x="332.2251" y="-15.4" font-family="sans-serif" font-size="14.00" fill="#000000"> &#160;Module</text>
<polygon fill="#80b1d3" stroke="transparent" points="394.5,-10 394.5,-30 414.5,-30 414.5,-10 394.5,-10"/>
<text text-anchor="start" x="418.2812" y="-15.4" font-family="sans-serif" font-size="14.00" fill="#000000"> &#160;Bootstrap</text>
<polygon fill="#fdb462" stroke="transparent" points="491.5,-10 491.5,-30 511.5,-30 511.5,-10 491.5,-10"/>
<text text-anchor="start" x="515.1732" y="-15.4" font-family="sans-serif" font-size="14.00" fill="#000000"> &#160;Providers</text>
<polygon fill="#fb8072" stroke="transparent" points="587.5,-10 587.5,-30 607.5,-30 607.5,-10 587.5,-10"/>
<text text-anchor="start" x="611.2258" y="-15.4" font-family="sans-serif" font-size="14.00" fill="#000000"> &#160;Exports</text>
<g id="clust1" class="cluster">
<title>cluster_CoreModule</title>
<polygon fill="none" stroke="#000000" stroke-dasharray="1,5" points="8,-70 8,-268 851,-268 851,-70 8,-70"/>
</g>
<g id="clust2" class="cluster">
<title>cluster_CoreModule_declarations</title>
<polygon fill="none" stroke="#000000" points="146,-78 146,-130 843,-130 843,-78 146,-78"/>
</g>
<g id="clust8" class="cluster">
<title>cluster_CoreModule_imports</title>
<polygon fill="none" stroke="#000000" points="16,-78 16,-130 138,-130 138,-78 16,-78"/>
</g>
<g id="clust9" class="cluster">
<title>cluster_CoreModule_exports</title>
<polygon fill="none" stroke="#000000" points="72,-208 72,-260 787,-260 787,-208 72,-208"/>
</g>
<!-- AppComponent -->
<g id="node1" class="node">
<title>AppComponent</title>
<polygon fill="#ffffb3" stroke="#000000" points="834.9399,-122 729.0601,-122 729.0601,-86 834.9399,-86 834.9399,-122"/>
<text text-anchor="middle" x="782" y="-99.8" font-family="Times,serif" font-size="14.00" fill="#000000">AppComponent</text>
</g>
<!-- CoreModule -->
<g id="node6" class="node">
<title>CoreModule</title>
<polygon fill="#8dd3c7" stroke="#000000" points="486.2619,-187 483.2619,-191 462.2619,-191 459.2619,-187 399.7381,-187 399.7381,-151 486.2619,-151 486.2619,-187"/>
<text text-anchor="middle" x="443" y="-164.8" font-family="Times,serif" font-size="14.00" fill="#000000">CoreModule</text>
</g>
<!-- AppComponent&#45;&gt;CoreModule -->
<g id="edge1" class="edge">
<title>AppComponent&#45;&gt;CoreModule</title>
<path fill="none" stroke="#000000" d="M754.375,-122.2667C754.375,-140.5552 754.375,-166 754.375,-166 754.375,-166 496.2954,-166 496.2954,-166"/>
<polygon fill="#000000" stroke="#000000" points="496.2954,-162.5001 486.2954,-166 496.2953,-169.5001 496.2954,-162.5001"/>
</g>
<!-- LayoutComponent -->
<g id="node2" class="node">
<title>LayoutComponent</title>
<polygon fill="#ffffb3" stroke="#000000" points="711.4902,-122 590.5098,-122 590.5098,-86 711.4902,-86 711.4902,-122"/>
<text text-anchor="middle" x="651" y="-99.8" font-family="Times,serif" font-size="14.00" fill="#000000">LayoutComponent</text>
</g>
<!-- LayoutComponent&#45;&gt;CoreModule -->
<g id="edge2" class="edge">
<title>LayoutComponent&#45;&gt;CoreModule</title>
<path fill="none" stroke="#000000" d="M621.375,-122.0091C621.375,-138.0494 621.375,-159 621.375,-159 621.375,-159 496.6354,-159 496.6354,-159"/>
<polygon fill="#000000" stroke="#000000" points="496.6355,-155.5001 486.6354,-159 496.6354,-162.5001 496.6355,-155.5001"/>
</g>
<!-- NavItemComponent -->
<g id="node3" class="node">
<title>NavItemComponent</title>
<polygon fill="#ffffb3" stroke="#000000" points="572.3104,-122 441.6896,-122 441.6896,-86 572.3104,-86 572.3104,-122"/>
<text text-anchor="middle" x="507" y="-99.8" font-family="Times,serif" font-size="14.00" fill="#000000">NavItemComponent</text>
</g>
<!-- NavItemComponent&#45;&gt;CoreModule -->
<g id="edge3" class="edge">
<title>NavItemComponent&#45;&gt;CoreModule</title>
<path fill="none" stroke="#000000" d="M464.1129,-122.1061C464.1129,-122.1061 464.1129,-140.991 464.1129,-140.991"/>
<polygon fill="#000000" stroke="#000000" points="460.613,-140.9909 464.1129,-150.991 467.613,-140.991 460.613,-140.9909"/>
</g>
<!-- SidenavComponent -->
<g id="node4" class="node">
<title>SidenavComponent</title>
<polygon fill="#ffffb3" stroke="#000000" points="424.4356,-122 297.5644,-122 297.5644,-86 424.4356,-86 424.4356,-122"/>
<text text-anchor="middle" x="361" y="-99.8" font-family="Times,serif" font-size="14.00" fill="#000000">SidenavComponent</text>
</g>
<!-- SidenavComponent&#45;&gt;CoreModule -->
<g id="edge4" class="edge">
<title>SidenavComponent&#45;&gt;CoreModule</title>
<path fill="none" stroke="#000000" d="M411.9183,-122.1061C411.9183,-122.1061 411.9183,-140.991 411.9183,-140.991"/>
<polygon fill="#000000" stroke="#000000" points="408.4184,-140.9909 411.9183,-150.991 415.4184,-140.991 408.4184,-140.9909"/>
</g>
<!-- ToolbarComponent -->
<g id="node5" class="node">
<title>ToolbarComponent</title>
<polygon fill="#ffffb3" stroke="#000000" points="279.6513,-122 154.3487,-122 154.3487,-86 279.6513,-86 279.6513,-122"/>
<text text-anchor="middle" x="217" y="-99.8" font-family="Times,serif" font-size="14.00" fill="#000000">ToolbarComponent</text>
</g>
<!-- ToolbarComponent&#45;&gt;CoreModule -->
<g id="edge5" class="edge">
<title>ToolbarComponent&#45;&gt;CoreModule</title>
<path fill="none" stroke="#000000" d="M253.929,-122.0091C253.929,-138.0494 253.929,-159 253.929,-159 253.929,-159 389.6233,-159 389.6233,-159"/>
<polygon fill="#000000" stroke="#000000" points="389.6233,-162.5001 399.6233,-159 389.6233,-155.5001 389.6233,-162.5001"/>
</g>
<!-- AppComponent  -->
<g id="node8" class="node">
<title>AppComponent </title>
<polygon fill="#fb8072" stroke="#000000" points="779.439,-252 670.561,-252 670.561,-216 779.439,-216 779.439,-252"/>
<text text-anchor="middle" x="725" y="-229.8" font-family="Times,serif" font-size="14.00" fill="#000000">AppComponent </text>
</g>
<!-- CoreModule&#45;&gt;AppComponent  -->
<g id="edge7" class="edge">
<title>CoreModule&#45;&gt;AppComponent </title>
<path fill="none" stroke="#000000" stroke-dasharray="5,2" d="M486.4843,-173C557.6133,-173 691.0128,-173 691.0128,-173 691.0128,-173 691.0128,-205.698 691.0128,-205.698"/>
<polygon fill="#000000" stroke="#000000" points="687.5129,-205.698 691.0128,-215.698 694.5129,-205.698 687.5129,-205.698"/>
</g>
<!-- LayoutComponent  -->
<g id="node9" class="node">
<title>LayoutComponent </title>
<polygon fill="#fb8072" stroke="#000000" points="652.4912,-252 527.5088,-252 527.5088,-216 652.4912,-216 652.4912,-252"/>
<text text-anchor="middle" x="590" y="-229.8" font-family="Times,serif" font-size="14.00" fill="#000000">LayoutComponent </text>
</g>
<!-- CoreModule&#45;&gt;LayoutComponent  -->
<g id="edge8" class="edge">
<title>CoreModule&#45;&gt;LayoutComponent </title>
<path fill="none" stroke="#000000" stroke-dasharray="5,2" d="M486.5027,-180C516.1137,-180 549.955,-180 549.955,-180 549.955,-180 549.955,-205.7181 549.955,-205.7181"/>
<polygon fill="#000000" stroke="#000000" points="546.455,-205.718 549.955,-215.7181 553.455,-205.7181 546.455,-205.718"/>
</g>
<!-- NavItemComponent  -->
<g id="node10" class="node">
<title>NavItemComponent </title>
<polygon fill="#fb8072" stroke="#000000" points="509.8101,-252 376.1899,-252 376.1899,-216 509.8101,-216 509.8101,-252"/>
<text text-anchor="middle" x="443" y="-229.8" font-family="Times,serif" font-size="14.00" fill="#000000">NavItemComponent </text>
</g>
<!-- CoreModule&#45;&gt;NavItemComponent  -->
<g id="edge9" class="edge">
<title>CoreModule&#45;&gt;NavItemComponent </title>
<path fill="none" stroke="#000000" stroke-dasharray="5,2" d="M443,-187.1061C443,-187.1061 443,-205.991 443,-205.991"/>
<polygon fill="#000000" stroke="#000000" points="439.5001,-205.9909 443,-215.991 446.5001,-205.991 439.5001,-205.9909"/>
</g>
<!-- SidenavComponent  -->
<g id="node11" class="node">
<title>SidenavComponent </title>
<polygon fill="#fb8072" stroke="#000000" points="357.9348,-252 228.0652,-252 228.0652,-216 357.9348,-216 357.9348,-252"/>
<text text-anchor="middle" x="293" y="-229.8" font-family="Times,serif" font-size="14.00" fill="#000000">SidenavComponent </text>
</g>
<!-- CoreModule&#45;&gt;SidenavComponent  -->
<g id="edge10" class="edge">
<title>CoreModule&#45;&gt;SidenavComponent </title>
<path fill="none" stroke="#000000" stroke-dasharray="5,2" d="M399.4762,-180C366.8748,-180 327.875,-180 327.875,-180 327.875,-180 327.875,-205.7181 327.875,-205.7181"/>
<polygon fill="#000000" stroke="#000000" points="324.3751,-205.718 327.875,-215.7181 331.3751,-205.7181 324.3751,-205.718"/>
</g>
<!-- ToolbarComponent  -->
<g id="node12" class="node">
<title>ToolbarComponent </title>
<polygon fill="#fb8072" stroke="#000000" points="209.6509,-252 80.3491,-252 80.3491,-216 209.6509,-216 209.6509,-252"/>
<text text-anchor="middle" x="145" y="-229.8" font-family="Times,serif" font-size="14.00" fill="#000000">ToolbarComponent </text>
</g>
<!-- CoreModule&#45;&gt;ToolbarComponent  -->
<g id="edge11" class="edge">
<title>CoreModule&#45;&gt;ToolbarComponent </title>
<path fill="none" stroke="#000000" stroke-dasharray="5,2" d="M399.5874,-173C325.3354,-173 181.875,-173 181.875,-173 181.875,-173 181.875,-205.698 181.875,-205.698"/>
<polygon fill="#000000" stroke="#000000" points="178.3751,-205.698 181.875,-215.698 185.3751,-205.698 178.3751,-205.698"/>
</g>
<!-- MaterialModule -->
<g id="node7" class="node">
<title>MaterialModule</title>
<polygon fill="#8dd3c7" stroke="#000000" points="130.4706,-122 127.4706,-126 106.4706,-126 103.4706,-122 23.5294,-122 23.5294,-86 130.4706,-86 130.4706,-122"/>
<text text-anchor="middle" x="77" y="-99.8" font-family="Times,serif" font-size="14.00" fill="#000000">MaterialModule</text>
</g>
<!-- MaterialModule&#45;&gt;CoreModule -->
<g id="edge6" class="edge">
<title>MaterialModule&#45;&gt;CoreModule</title>
<path fill="none" stroke="#000000" d="M105.455,-122.2667C105.455,-140.5552 105.455,-166 105.455,-166 105.455,-166 389.5629,-166 389.5629,-166"/>
<polygon fill="#000000" stroke="#000000" points="389.5629,-169.5001 399.5629,-166 389.5629,-162.5001 389.5629,-169.5001"/>
</g>
</g>
</svg>
