<?xml version="1.0" encoding="UTF-8" standalone="no"?>
<!DOCTYPE svg PUBLIC "-//W3C//DTD SVG 1.1//EN"
 "http://www.w3.org/Graphics/SVG/1.1/DTD/svg11.dtd">
<!-- Generated by graphviz version 2.40.1 (20161225.0304)
 -->
<!-- Title: dependencies Pages: 1 -->
<svg width="504pt" height="284pt"
 viewBox="0.00 0.00 504.00 284.00" xmlns="http://www.w3.org/2000/svg" xmlns:xlink="http://www.w3.org/1999/xlink">
<g id="graph0" class="graph" transform="scale(1 1) rotate(0) translate(4 280)">
<title>dependencies</title>
<polygon fill="#ffffff" stroke="transparent" points="-4,4 -4,-280 500,-280 500,4 -4,4"/>
<text text-anchor="start" x="227.0091" y="-42.4" font-family="sans-serif" font-weight="bold" font-size="14.00" fill="#000000">Legend</text>
<polygon fill="#ffffb3" stroke="transparent" points="14,-10 14,-30 34,-30 34,-10 14,-10"/>
<text text-anchor="start" x="37.629" y="-15.4" font-family="sans-serif" font-size="14.00" fill="#000000"> &#160;Declarations</text>
<polygon fill="#8dd3c7" stroke="transparent" points="127,-10 127,-30 147,-30 147,-10 127,-10"/>
<text text-anchor="start" x="150.7251" y="-15.4" font-family="sans-serif" font-size="14.00" fill="#000000"> &#160;Module</text>
<polygon fill="#80b1d3" stroke="transparent" points="213,-10 213,-30 233,-30 233,-10 213,-10"/>
<text text-anchor="start" x="236.7812" y="-15.4" font-family="sans-serif" font-size="14.00" fill="#000000"> &#160;Bootstrap</text>
<polygon fill="#fdb462" stroke="transparent" points="310,-10 310,-30 330,-30 330,-10 310,-10"/>
<text text-anchor="start" x="333.6732" y="-15.4" font-family="sans-serif" font-size="14.00" fill="#000000"> &#160;Providers</text>
<polygon fill="#fb8072" stroke="transparent" points="406,-10 406,-30 426,-30 426,-10 406,-10"/>
<text text-anchor="start" x="429.7258" y="-15.4" font-family="sans-serif" font-size="14.00" fill="#000000"> &#160;Exports</text>
<g id="clust1" class="cluster">
<title>cluster_AuthModule</title>
<polygon fill="none" stroke="#000000" stroke-dasharray="1,5" points="14,-70 14,-268 482,-268 482,-70 14,-70"/>
</g>
<g id="clust2" class="cluster">
<title>cluster_AuthModule_declarations</title>
<polygon fill="none" stroke="#000000" points="152,-78 152,-130 474,-130 474,-78 152,-78"/>
</g>
<g id="clust5" class="cluster">
<title>cluster_AuthModule_imports</title>
<polygon fill="none" stroke="#000000" points="22,-78 22,-130 144,-130 144,-78 22,-78"/>
</g>
<g id="clust6" class="cluster">
<title>cluster_AuthModule_exports</title>
<polygon fill="none" stroke="#000000" points="84,-208 84,-260 412,-260 412,-208 84,-208"/>
</g>
<!-- LoginFormComponent -->
<g id="node1" class="node">
<title>LoginFormComponent</title>
<polygon fill="#ffffb3" stroke="#000000" points="465.6094,-122 320.3906,-122 320.3906,-86 465.6094,-86 465.6094,-122"/>
<text text-anchor="middle" x="393" y="-99.8" font-family="Times,serif" font-size="14.00" fill="#000000">LoginFormComponent</text>
</g>
<!-- AuthModule -->
<g id="node3" class="node">
<title>AuthModule</title>
<polygon fill="#8dd3c7" stroke="#000000" points="274.5482,-187 271.5482,-191 250.5482,-191 247.5482,-187 187.4518,-187 187.4518,-151 274.5482,-151 274.5482,-187"/>
<text text-anchor="middle" x="231" y="-164.8" font-family="Times,serif" font-size="14.00" fill="#000000">AuthModule</text>
</g>
<!-- LoginFormComponent&#45;&gt;AuthModule -->
<g id="edge1" class="edge">
<title>LoginFormComponent&#45;&gt;AuthModule</title>
<path fill="none" stroke="#000000" d="M362.375,-122.1061C362.375,-141.3391 362.375,-169 362.375,-169 362.375,-169 284.746,-169 284.746,-169"/>
<polygon fill="#000000" stroke="#000000" points="284.746,-165.5001 274.746,-169 284.7459,-172.5001 284.746,-165.5001"/>
</g>
<!-- LoginPageComponent -->
<g id="node2" class="node">
<title>LoginPageComponent</title>
<polygon fill="#ffffb3" stroke="#000000" points="301.9874,-122 160.0126,-122 160.0126,-86 301.9874,-86 301.9874,-122"/>
<text text-anchor="middle" x="231" y="-99.8" font-family="Times,serif" font-size="14.00" fill="#000000">LoginPageComponent</text>
</g>
<!-- LoginPageComponent&#45;&gt;AuthModule -->
<g id="edge2" class="edge">
<title>LoginPageComponent&#45;&gt;AuthModule</title>
<path fill="none" stroke="#000000" d="M231,-122.1061C231,-122.1061 231,-140.991 231,-140.991"/>
<polygon fill="#000000" stroke="#000000" points="227.5001,-140.9909 231,-150.991 234.5001,-140.991 227.5001,-140.9909"/>
</g>
<!-- LoginFormComponent  -->
<g id="node5" class="node">
<title>LoginFormComponent </title>
<polygon fill="#fb8072" stroke="#000000" points="404.1099,-252 255.8901,-252 255.8901,-216 404.1099,-216 404.1099,-252"/>
<text text-anchor="middle" x="330" y="-229.8" font-family="Times,serif" font-size="14.00" fill="#000000">LoginFormComponent </text>
</g>
<!-- AuthModule&#45;&gt;LoginFormComponent  -->
<g id="edge4" class="edge">
<title>AuthModule&#45;&gt;LoginFormComponent </title>
<path fill="none" stroke="#000000" stroke-dasharray="5,2" d="M265.2344,-187.1061C265.2344,-187.1061 265.2344,-205.991 265.2344,-205.991"/>
<polygon fill="#000000" stroke="#000000" points="261.7345,-205.9909 265.2344,-215.991 268.7345,-205.991 261.7345,-205.9909"/>
</g>
<!-- LoginPageComponent  -->
<g id="node6" class="node">
<title>LoginPageComponent </title>
<polygon fill="#fb8072" stroke="#000000" points="237.9882,-252 92.0118,-252 92.0118,-216 237.9882,-216 237.9882,-252"/>
<text text-anchor="middle" x="165" y="-229.8" font-family="Times,serif" font-size="14.00" fill="#000000">LoginPageComponent </text>
</g>
<!-- AuthModule&#45;&gt;LoginPageComponent  -->
<g id="edge5" class="edge">
<title>AuthModule&#45;&gt;LoginPageComponent </title>
<path fill="none" stroke="#000000" stroke-dasharray="5,2" d="M212.4851,-187.1061C212.4851,-187.1061 212.4851,-205.991 212.4851,-205.991"/>
<polygon fill="#000000" stroke="#000000" points="208.9852,-205.9909 212.4851,-215.991 215.9852,-205.991 208.9852,-205.9909"/>
</g>
<!-- MaterialModule -->
<g id="node4" class="node">
<title>MaterialModule</title>
<polygon fill="#8dd3c7" stroke="#000000" points="136.4706,-122 133.4706,-126 112.4706,-126 109.4706,-122 29.5294,-122 29.5294,-86 136.4706,-86 136.4706,-122"/>
<text text-anchor="middle" x="83" y="-99.8" font-family="Times,serif" font-size="14.00" fill="#000000">MaterialModule</text>
</g>
<!-- MaterialModule&#45;&gt;AuthModule -->
<g id="edge3" class="edge">
<title>MaterialModule&#45;&gt;AuthModule</title>
<path fill="none" stroke="#000000" d="M114.3708,-122.1061C114.3708,-141.3391 114.3708,-169 114.3708,-169 114.3708,-169 177.2398,-169 177.2398,-169"/>
<polygon fill="#000000" stroke="#000000" points="177.2398,-172.5001 187.2398,-169 177.2397,-165.5001 177.2398,-172.5001"/>
</g>
</g>
</svg>
