<?xml version="1.0" encoding="UTF-8" standalone="no"?>
<!DOCTYPE svg PUBLIC "-//W3C//DTD SVG 1.1//EN"
 "http://www.w3.org/Graphics/SVG/1.1/DTD/svg11.dtd">
<!-- Generated by graphviz version 2.40.1 (20161225.0304)
 -->
<!-- Title: dependencies Pages: 1 -->
<svg width="504pt" height="284pt"
 viewBox="0.00 0.00 504.00 284.00" xmlns="http://www.w3.org/2000/svg" xmlns:xlink="http://www.w3.org/1999/xlink">
<g id="graph0" class="graph" transform="scale(1 1) rotate(0) translate(4 280)">
<title>dependencies</title>
<polygon fill="#ffffff" stroke="transparent" points="-4,4 -4,-280 500,-280 500,4 -4,4"/>
<text text-anchor="start" x="227.0091" y="-42.4" font-family="sans-serif" font-weight="bold" font-size="14.00" fill="#000000">Legend</text>
<polygon fill="#ffffb3" stroke="transparent" points="14,-10 14,-30 34,-30 34,-10 14,-10"/>
<text text-anchor="start" x="37.629" y="-15.4" font-family="sans-serif" font-size="14.00" fill="#000000"> &#160;Declarations</text>
<polygon fill="#8dd3c7" stroke="transparent" points="127,-10 127,-30 147,-30 147,-10 127,-10"/>
<text text-anchor="start" x="150.7251" y="-15.4" font-family="sans-serif" font-size="14.00" fill="#000000"> &#160;Module</text>
<polygon fill="#80b1d3" stroke="transparent" points="213,-10 213,-30 233,-30 233,-10 213,-10"/>
<text text-anchor="start" x="236.7812" y="-15.4" font-family="sans-serif" font-size="14.00" fill="#000000"> &#160;Bootstrap</text>
<polygon fill="#fdb462" stroke="transparent" points="310,-10 310,-30 330,-30 330,-10 310,-10"/>
<text text-anchor="start" x="333.6732" y="-15.4" font-family="sans-serif" font-size="14.00" fill="#000000"> &#160;Providers</text>
<polygon fill="#fb8072" stroke="transparent" points="406,-10 406,-30 426,-30 426,-10 406,-10"/>
<text text-anchor="start" x="429.7258" y="-15.4" font-family="sans-serif" font-size="14.00" fill="#000000"> &#160;Exports</text>
<g id="clust1" class="cluster">
<title>cluster_PipesModule</title>
<polygon fill="none" stroke="#000000" stroke-dasharray="1,5" points="121,-70 121,-268 375,-268 375,-70 121,-70"/>
</g>
<g id="clust2" class="cluster">
<title>cluster_PipesModule_declarations</title>
<polygon fill="none" stroke="#000000" points="133,-78 133,-130 364,-130 364,-78 133,-78"/>
</g>
<g id="clust6" class="cluster">
<title>cluster_PipesModule_exports</title>
<polygon fill="none" stroke="#000000" points="129,-208 129,-260 367,-260 367,-208 129,-208"/>
</g>
<!-- AddCommasPipe -->
<g id="node1" class="node">
<title>AddCommasPipe</title>
<polygon fill="#ffffb3" stroke="#000000" points="356.2716,-122 241.7284,-122 241.7284,-86 356.2716,-86 356.2716,-122"/>
<text text-anchor="middle" x="299" y="-99.8" font-family="Times,serif" font-size="14.00" fill="#000000">AddCommasPipe</text>
</g>
<!-- PipesModule -->
<g id="node3" class="node">
<title>PipesModule</title>
<polygon fill="#8dd3c7" stroke="#000000" points="227.8823,-187 224.8823,-191 203.8823,-191 200.8823,-187 138.1177,-187 138.1177,-151 227.8823,-151 227.8823,-187"/>
<text text-anchor="middle" x="183" y="-164.8" font-family="Times,serif" font-size="14.00" fill="#000000">PipesModule</text>
</g>
<!-- AddCommasPipe&#45;&gt;PipesModule -->
<g id="edge1" class="edge">
<title>AddCommasPipe&#45;&gt;PipesModule</title>
<path fill="none" stroke="#000000" d="M318.1286,-122.0225C318.1286,-139.3734 318.1286,-163 318.1286,-163 318.1286,-163 237.9959,-163 237.9959,-163"/>
<polygon fill="#000000" stroke="#000000" points="237.9959,-159.5001 227.9959,-163 237.9958,-166.5001 237.9959,-159.5001"/>
</g>
<!-- EllipsisPipe -->
<g id="node2" class="node">
<title>EllipsisPipe</title>
<polygon fill="#ffffb3" stroke="#000000" points="223.3921,-122 140.6079,-122 140.6079,-86 223.3921,-86 223.3921,-122"/>
<text text-anchor="middle" x="182" y="-99.8" font-family="Times,serif" font-size="14.00" fill="#000000">EllipsisPipe</text>
</g>
<!-- EllipsisPipe&#45;&gt;PipesModule -->
<g id="edge2" class="edge">
<title>EllipsisPipe&#45;&gt;PipesModule</title>
<path fill="none" stroke="#000000" d="M182,-122.1061C182,-122.1061 182,-140.991 182,-140.991"/>
<polygon fill="#000000" stroke="#000000" points="178.5001,-140.9909 182,-150.991 185.5001,-140.991 178.5001,-140.9909"/>
</g>
<!-- AddCommasPipe  -->
<g id="node4" class="node">
<title>AddCommasPipe </title>
<polygon fill="#fb8072" stroke="#000000" points="359.2717,-252 240.7283,-252 240.7283,-216 359.2717,-216 359.2717,-252"/>
<text text-anchor="middle" x="300" y="-229.8" font-family="Times,serif" font-size="14.00" fill="#000000">AddCommasPipe </text>
</g>
<!-- PipesModule&#45;&gt;AddCommasPipe  -->
<g id="edge3" class="edge">
<title>PipesModule&#45;&gt;AddCommasPipe </title>
<path fill="none" stroke="#000000" stroke-dasharray="5,2" d="M228.0326,-175C253.3299,-175 279.8714,-175 279.8714,-175 279.8714,-175 279.8714,-205.9775 279.8714,-205.9775"/>
<polygon fill="#000000" stroke="#000000" points="276.3715,-205.9774 279.8714,-215.9775 283.3715,-205.9775 276.3715,-205.9774"/>
</g>
<!-- EllipsisPipe  -->
<g id="node5" class="node">
<title>EllipsisPipe </title>
<polygon fill="#fb8072" stroke="#000000" points="223.3929,-252 136.6071,-252 136.6071,-216 223.3929,-216 223.3929,-252"/>
<text text-anchor="middle" x="180" y="-229.8" font-family="Times,serif" font-size="14.00" fill="#000000">EllipsisPipe </text>
</g>
<!-- PipesModule&#45;&gt;EllipsisPipe  -->
<g id="edge4" class="edge">
<title>PipesModule&#45;&gt;EllipsisPipe </title>
<path fill="none" stroke="#000000" stroke-dasharray="5,2" d="M180.6275,-187.1061C180.6275,-187.1061 180.6275,-205.991 180.6275,-205.991"/>
<polygon fill="#000000" stroke="#000000" points="177.1275,-205.9909 180.6275,-215.991 184.1275,-205.991 177.1275,-205.9909"/>
</g>
</g>
</svg>
