<?xml version="1.0" encoding="UTF-8" standalone="no"?>
<!DOCTYPE svg PUBLIC "-//W3C//DTD SVG 1.1//EN"
 "http://www.w3.org/Graphics/SVG/1.1/DTD/svg11.dtd">
<!-- Generated by graphviz version 2.40.1 (20161225.0304)
 -->
<!-- Title: dependencies Pages: 1 -->
<svg width="927pt" height="211pt"
 viewBox="0.00 0.00 927.00 211.00" xmlns="http://www.w3.org/2000/svg" xmlns:xlink="http://www.w3.org/1999/xlink">
<g id="graph0" class="graph" transform="scale(1 1) rotate(0) translate(4 207)">
<title>dependencies</title>
<polygon fill="#ffffff" stroke="transparent" points="-4,4 -4,-207 923,-207 923,4 -4,4"/>
<text text-anchor="start" x="438.5091" y="-42.4" font-family="sans-serif" font-weight="bold" font-size="14.00" fill="#000000">Legend</text>
<polygon fill="#ffffb3" stroke="transparent" points="225.5,-10 225.5,-30 245.5,-30 245.5,-10 225.5,-10"/>
<text text-anchor="start" x="249.129" y="-15.4" font-family="sans-serif" font-size="14.00" fill="#000000"> &#160;Declarations</text>
<polygon fill="#8dd3c7" stroke="transparent" points="338.5,-10 338.5,-30 358.5,-30 358.5,-10 338.5,-10"/>
<text text-anchor="start" x="362.2251" y="-15.4" font-family="sans-serif" font-size="14.00" fill="#000000"> &#160;Module</text>
<polygon fill="#80b1d3" stroke="transparent" points="424.5,-10 424.5,-30 444.5,-30 444.5,-10 424.5,-10"/>
<text text-anchor="start" x="448.2812" y="-15.4" font-family="sans-serif" font-size="14.00" fill="#000000"> &#160;Bootstrap</text>
<polygon fill="#fdb462" stroke="transparent" points="521.5,-10 521.5,-30 541.5,-30 541.5,-10 521.5,-10"/>
<text text-anchor="start" x="545.1732" y="-15.4" font-family="sans-serif" font-size="14.00" fill="#000000"> &#160;Providers</text>
<polygon fill="#fb8072" stroke="transparent" points="617.5,-10 617.5,-30 637.5,-30 637.5,-10 617.5,-10"/>
<text text-anchor="start" x="641.2258" y="-15.4" font-family="sans-serif" font-size="14.00" fill="#000000"> &#160;Exports</text>
<g id="clust1" class="cluster">
<title>cluster_BooksModule</title>
<polygon fill="none" stroke="#000000" stroke-dasharray="1,5" points="8,-70 8,-195 911,-195 911,-70 8,-70"/>
</g>
<g id="clust2" class="cluster">
<title>cluster_BooksModule_declarations</title>
<polygon fill="none" stroke="#000000" points="146,-78 146,-130 903,-130 903,-78 146,-78"/>
</g>
<g id="clust7" class="cluster">
<title>cluster_BooksModule_imports</title>
<polygon fill="none" stroke="#000000" points="16,-78 16,-130 138,-130 138,-78 16,-78"/>
</g>
<!-- CollectionPageComponent -->
<g id="node1" class="node">
<title>CollectionPageComponent</title>
<polygon fill="#ffffb3" stroke="#000000" points="895.3724,-122 728.6276,-122 728.6276,-86 895.3724,-86 895.3724,-122"/>
<text text-anchor="middle" x="812" y="-99.8" font-family="Times,serif" font-size="14.00" fill="#000000">CollectionPageComponent</text>
</g>
<!-- BooksModule -->
<g id="node5" class="node">
<title>BooksModule</title>
<polygon fill="#8dd3c7" stroke="#000000" points="482.8316,-187 479.8316,-191 458.8316,-191 455.8316,-187 387.1684,-187 387.1684,-151 482.8316,-151 482.8316,-187"/>
<text text-anchor="middle" x="435" y="-164.8" font-family="Times,serif" font-size="14.00" fill="#000000">BooksModule</text>
</g>
<!-- CollectionPageComponent&#45;&gt;BooksModule -->
<g id="edge1" class="edge">
<title>CollectionPageComponent&#45;&gt;BooksModule</title>
<path fill="none" stroke="#000000" d="M812,-122.2843C812,-143.3211 812,-175 812,-175 812,-175 492.7473,-175 492.7473,-175"/>
<polygon fill="#000000" stroke="#000000" points="492.7473,-171.5001 482.7473,-175 492.7473,-178.5001 492.7473,-171.5001"/>
</g>
<!-- FindBookPageComponent -->
<g id="node2" class="node">
<title>FindBookPageComponent</title>
<polygon fill="#ffffb3" stroke="#000000" points="710.0546,-122 545.9454,-122 545.9454,-86 710.0546,-86 710.0546,-122"/>
<text text-anchor="middle" x="628" y="-99.8" font-family="Times,serif" font-size="14.00" fill="#000000">FindBookPageComponent</text>
</g>
<!-- FindBookPageComponent&#45;&gt;BooksModule -->
<g id="edge2" class="edge">
<title>FindBookPageComponent&#45;&gt;BooksModule</title>
<path fill="none" stroke="#000000" d="M628,-122.0225C628,-139.3734 628,-163 628,-163 628,-163 492.7079,-163 492.7079,-163"/>
<polygon fill="#000000" stroke="#000000" points="492.7079,-159.5001 482.7079,-163 492.7078,-166.5001 492.7079,-159.5001"/>
</g>
<!-- SelectedBookPageComponent -->
<g id="node3" class="node">
<title>SelectedBookPageComponent</title>
<polygon fill="#ffffb3" stroke="#000000" points="528.3032,-122 341.6968,-122 341.6968,-86 528.3032,-86 528.3032,-122"/>
<text text-anchor="middle" x="435" y="-99.8" font-family="Times,serif" font-size="14.00" fill="#000000">SelectedBookPageComponent</text>
</g>
<!-- SelectedBookPageComponent&#45;&gt;BooksModule -->
<g id="edge3" class="edge">
<title>SelectedBookPageComponent&#45;&gt;BooksModule</title>
<path fill="none" stroke="#000000" d="M435,-122.1061C435,-122.1061 435,-140.991 435,-140.991"/>
<polygon fill="#000000" stroke="#000000" points="431.5001,-140.9909 435,-150.991 438.5001,-140.991 431.5001,-140.9909"/>
</g>
<!-- ViewBookPageComponent -->
<g id="node4" class="node">
<title>ViewBookPageComponent</title>
<polygon fill="#ffffb3" stroke="#000000" points="323.6993,-122 154.3007,-122 154.3007,-86 323.6993,-86 323.6993,-122"/>
<text text-anchor="middle" x="239" y="-99.8" font-family="Times,serif" font-size="14.00" fill="#000000">ViewBookPageComponent</text>
</g>
<!-- ViewBookPageComponent&#45;&gt;BooksModule -->
<g id="edge4" class="edge">
<title>ViewBookPageComponent&#45;&gt;BooksModule</title>
<path fill="none" stroke="#000000" d="M239,-122.0225C239,-139.3734 239,-163 239,-163 239,-163 377.3036,-163 377.3036,-163"/>
<polygon fill="#000000" stroke="#000000" points="377.3037,-166.5001 387.3036,-163 377.3036,-159.5001 377.3037,-166.5001"/>
</g>
<!-- MaterialModule -->
<g id="node6" class="node">
<title>MaterialModule</title>
<polygon fill="#8dd3c7" stroke="#000000" points="130.4706,-122 127.4706,-126 106.4706,-126 103.4706,-122 23.5294,-122 23.5294,-86 130.4706,-86 130.4706,-122"/>
<text text-anchor="middle" x="77" y="-99.8" font-family="Times,serif" font-size="14.00" fill="#000000">MaterialModule</text>
</g>
<!-- MaterialModule&#45;&gt;BooksModule -->
<g id="edge5" class="edge">
<title>MaterialModule&#45;&gt;BooksModule</title>
<path fill="none" stroke="#000000" d="M77,-122.2843C77,-143.3211 77,-175 77,-175 77,-175 377.09,-175 377.09,-175"/>
<polygon fill="#000000" stroke="#000000" points="377.09,-178.5001 387.09,-175 377.09,-171.5001 377.09,-178.5001"/>
</g>
</g>
</svg>
